<?xml version="1.0" encoding="utf-8"?>
<!-- Generator: Adobe Illustrator 15.0.0, SVG Export Plug-In  -->
<!DOCTYPE svg PUBLIC "-//W3C//DTD SVG 1.1//EN" "http://www.w3.org/Graphics/SVG/1.1/DTD/svg11.dtd" [
	<!ENTITY ns_flows "http://ns.adobe.com/Flows/1.0/">
]>
<svg version="1.1"
	 xmlns="http://www.w3.org/2000/svg" xmlns:xlink="http://www.w3.org/1999/xlink" xmlns:a="http://ns.adobe.com/AdobeSVGViewerExtensions/3.0/"
	 x="0px" y="0px" width="184px" height="55px" viewBox="0 0.027 184 55" overflow="visible" enable-background="new 0 0.027 184 55"
	 xml:space="preserve">
<defs>
</defs>
<path fill="#3D6A74" d="M9.371,9.645H2.364v6.528h7.842v1.961H0V0.027h9.802v1.961H2.364v5.723h7.007V9.645z"/>
<path fill="#3D6A74" d="M18.021,8.65c0-1.37-0.051-2.445-0.105-3.519h2.064l0.11,2.123h0.081c0.723-1.236,1.932-2.392,4.108-2.392
	c1.747,0,3.086,1.074,3.649,2.605h0.056c0.403-0.751,0.94-1.289,1.478-1.691c0.778-0.592,1.612-0.914,2.847-0.914
	c1.748,0,4.298,1.129,4.298,5.642v7.629h-2.31V10.8c0-2.526-0.941-4.003-2.82-4.003c-1.369,0-2.393,0.994-2.82,2.122
	c-0.107,0.35-0.188,0.752-0.188,1.183v8.032h-2.308v-7.79c0-2.069-0.914-3.546-2.716-3.546c-1.449,0-2.551,1.182-2.926,2.365
	c-0.134,0.322-0.188,0.75-0.188,1.154v7.817h-2.311V8.65z"/>
<path fill="#3D6A74" d="M57.404,11.526c0,4.808-3.354,6.903-6.472,6.903c-3.489,0-6.234-2.578-6.234-6.688
	c0-4.326,2.878-6.878,6.451-6.878C54.881,4.863,57.404,7.576,57.404,11.526z M47.118,11.66c0,2.848,1.612,4.996,3.922,4.996
	c2.257,0,3.948-2.122,3.948-5.049c0-2.204-1.101-4.97-3.894-4.97C48.326,6.637,47.118,9.215,47.118,11.66z"/>
<path fill="#3D6A74" d="M68.283,2.015v3.116h3.383v1.8h-3.383v7.011c0,1.612,0.455,2.526,1.773,2.526
	c0.642,0,1.021-0.055,1.369-0.161l0.108,1.799c-0.457,0.161-1.184,0.322-2.097,0.322c-1.099,0-1.985-0.376-2.552-0.993
	c-0.644-0.725-0.911-1.881-0.911-3.412V6.932h-2.016v-1.8h2.016V2.713L68.283,2.015z"/>
<path fill="#3D6A74" d="M81.986,1.478c0,0.807-0.564,1.451-1.505,1.451c-0.858,0-1.425-0.644-1.425-1.451
	C79.057,0.672,79.649,0,80.536,0C81.397,0,81.986,0.645,81.986,1.478z M79.354,18.134V5.131h2.362v13.002H79.354z"/>
<path fill="#3D6A74" d="M102.555,11.526c0,4.808-3.356,6.903-6.474,6.903c-3.488,0-6.23-2.578-6.23-6.688
	c0-4.326,2.875-6.878,6.448-6.878C100.029,4.863,102.555,7.576,102.555,11.526z M92.27,11.66c0,2.848,1.611,4.996,3.919,4.996
	c2.257,0,3.948-2.122,3.948-5.049c0-2.204-1.1-4.97-3.894-4.97C93.478,6.637,92.27,9.215,92.27,11.66z"/>
<path fill="#3D6A74" d="M110.728,8.65c0-1.37-0.028-2.445-0.107-3.519h2.095l0.135,2.149h0.055c0.643-1.209,2.147-2.418,4.297-2.418
	c1.803,0,4.594,1.074,4.594,5.535v7.736h-2.364v-7.495c0-2.095-0.779-3.841-3.009-3.841c-1.531,0-2.738,1.102-3.17,2.417
	c-0.106,0.295-0.162,0.698-0.162,1.102v7.817h-2.362V8.65z"/>
<path fill="#3D6A74" d="M2.364,31.372v18.107H0V31.372H2.364z"/>
<path fill="#3D6A74" d="M11.467,39.995c0-1.369-0.028-2.445-0.107-3.518h2.095l0.134,2.148h0.054
	c0.646-1.21,2.146-2.418,4.297-2.418c1.801,0,4.591,1.074,4.591,5.534v7.737h-2.362v-7.496c0-2.096-0.777-3.842-3.008-3.842
	c-1.53,0-2.737,1.102-3.169,2.418c-0.109,0.296-0.161,0.699-0.161,1.102v7.818h-2.362V39.995z"/>
<path fill="#3D6A74" d="M34.137,33.36v3.117h3.384v1.799h-3.384v7.012c0,1.611,0.455,2.525,1.771,2.525
	c0.643,0,1.021-0.053,1.371-0.161l0.105,1.8c-0.456,0.161-1.183,0.322-2.093,0.322c-1.103,0-1.99-0.377-2.552-0.994
	c-0.646-0.725-0.915-1.881-0.915-3.412v-7.092H29.81v-1.799h2.016v-2.419L34.137,33.36z"/>
<path fill="#3D6A74" d="M46.392,43.407c0.055,3.197,2.068,4.514,4.459,4.514c1.69,0,2.738-0.295,3.599-0.672l0.429,1.692
	c-0.833,0.376-2.283,0.833-4.35,0.833c-4.004,0-6.394-2.66-6.394-6.582s2.312-6.984,6.098-6.984c4.271,0,5.373,3.707,5.373,6.098
	c0,0.484-0.027,0.833-0.082,1.102H46.392z M53.32,41.715c0.028-1.479-0.617-3.816-3.276-3.816c-2.416,0-3.438,2.177-3.626,3.816
	H53.32z"/>
<path fill="#3D6A74" d="M63.77,30.405h2.364v19.074H63.77V30.405z"/>
<path fill="#3D6A74" d="M75.111,30.405h2.362v19.074h-2.362V30.405z"/>
<path fill="#3D6A74" d="M89.085,32.823c0,0.805-0.562,1.451-1.503,1.451c-0.858,0-1.425-0.646-1.425-1.451
	c0-0.807,0.595-1.479,1.479-1.479C88.496,31.344,89.085,31.989,89.085,32.823z M86.454,49.479V36.477h2.363v13.002H86.454z"/>
<path fill="#3D6A74" d="M109.01,47.571c0,3.009-0.616,4.809-1.853,5.965c-1.289,1.154-3.114,1.557-4.753,1.557
	c-1.558,0-3.277-0.375-4.324-1.074l0.591-1.826c0.86,0.563,2.203,1.047,3.812,1.047c2.419,0,4.192-1.263,4.192-4.566v-1.424h-0.056
	c-0.699,1.209-2.12,2.176-4.137,2.176c-3.223,0-5.531-2.74-5.531-6.34c0-4.406,2.875-6.877,5.882-6.877
	c2.256,0,3.465,1.154,4.055,2.229h0.056l0.078-1.959h2.096c-0.081,0.912-0.108,1.987-0.108,3.545V47.571z M106.646,41.607
	c0-0.403-0.026-0.752-0.134-1.048c-0.43-1.396-1.556-2.525-3.303-2.525c-2.256,0-3.868,1.908-3.868,4.918
	c0,2.551,1.315,4.674,3.842,4.674c1.478,0,2.791-0.914,3.274-2.418c0.135-0.402,0.188-0.859,0.188-1.264V41.607z"/>
<path fill="#3D6A74" d="M119.43,43.407c0.054,3.197,2.068,4.514,4.459,4.514c1.692,0,2.741-0.295,3.601-0.672l0.429,1.692
	c-0.836,0.376-2.283,0.833-4.352,0.833c-4.002,0-6.395-2.66-6.395-6.582s2.312-6.984,6.099-6.984c4.271,0,5.374,3.707,5.374,6.098
	c0,0.484-0.027,0.833-0.082,1.102H119.43z M126.36,41.715c0.027-1.479-0.617-3.816-3.276-3.816c-2.418,0-3.44,2.177-3.63,3.816
	H126.36z"/>
<path fill="#3D6A74" d="M136.745,39.995c0-1.369-0.024-2.445-0.106-3.518h2.098l0.135,2.148h0.051
	c0.647-1.21,2.149-2.418,4.299-2.418c1.803,0,4.596,1.074,4.596,5.534v7.737h-2.366v-7.496c0-2.096-0.778-3.842-3.007-3.842
	c-1.531,0-2.741,1.102-3.172,2.418c-0.106,0.296-0.16,0.699-0.16,1.102v7.818h-2.366V39.995z"/>
<path fill="#3D6A74" d="M166.098,49.022c-0.617,0.295-1.986,0.752-3.733,0.752c-3.921,0-6.476-2.66-6.476-6.636
	c0-4.003,2.744-6.931,6.982-6.931c1.401,0,2.636,0.348,3.282,0.699l-0.536,1.8c-0.567-0.297-1.453-0.618-2.746-0.618
	c-2.98,0-4.589,2.229-4.589,4.915c0,3.009,1.932,4.862,4.511,4.862c1.345,0,2.23-0.321,2.902-0.617L166.098,49.022z"/>
<path fill="#3D6A74" d="M175.007,43.407c0.054,3.197,2.07,4.514,4.458,4.514c1.694,0,2.742-0.295,3.599-0.672l0.435,1.692
	c-0.836,0.376-2.286,0.833-4.354,0.833c-4.003,0-6.395-2.66-6.395-6.582s2.311-6.984,6.098-6.984c4.271,0,5.375,3.707,5.375,6.098
	c0,0.484-0.027,0.833-0.081,1.102H175.007z M181.939,41.715c0.028-1.479-0.623-3.816-3.275-3.816c-2.422,0-3.441,2.177-3.629,3.816
	H181.939z"/>
<path fill="#3D6A74" d="M135.024,18.196c-0.825,0-2.755-0.309-3.493-3.06c-1.064-1.274-2.564-3.565-2.564-6.366
	c0-4.637,3.896-8.409,8.69-8.409h0.111c4.79,0,8.687,3.772,8.687,8.409c0,2.149-0.885,4.236-2.701,6.371
	c-0.712,2.615-2.528,2.909-3.305,2.909l-0.099,0c-1.161-0.034-1.736-0.614-2.043-1.106c-0.189-0.001-0.889-0.001-1.029-0.001
	C136.886,17.774,136.13,18.196,135.024,18.196z"/>
<path fill="#FFFFFF" d="M137.769,1.946c-0.021,0-0.038,0.001-0.054,0.001c-0.021,0-0.038-0.001-0.058-0.001
	c-3.919,0-7.105,3.063-7.105,6.824c0,2.1,1.086,4.113,2.434,5.623c0.258,1.257,0.83,2.218,2.039,2.218
	c1.146,0,0.745-0.617,1.122-1.25c0.453-0.005,2.679-0.005,3.13,0c0.38,0.632,0.304,1.08,1.119,1.104
	c1.06,0.029,1.649-0.816,1.91-2.073c1.475-1.657,2.564-3.523,2.564-5.623C144.87,5.009,141.683,1.946,137.769,1.946z M138.053,2.979
	c-0.134-0.001-0.547-0.001-0.682,0C137.525,2.972,137.898,2.972,138.053,2.979z"/>
<path fill="#F5F5F5" d="M134.225,7.063c0,1.421,1.529,2.578,3.411,2.578c0.203,0,0.406-0.021,0.605-0.049
	c1.628-0.223,2.81-1.287,2.81-2.529c0-0.055-0.014-0.107-0.02-0.163h-6.786C134.241,6.956,134.225,7.008,134.225,7.063z"/>
<path fill="#3D6A74" d="M140.77,8.129c0,1.254-1.021,2.274-2.281,2.274c-1.256,0-2.272-1.02-2.272-2.274
	c0-1.257,1.017-2.279,2.272-2.279C139.749,5.85,140.77,6.872,140.77,8.129z"/>
<circle fill="#FFFFFF" cx="138.767" cy="7.794" r="0.728"/>
<g>
	<path fill="none" stroke="#3D6A74" stroke-width="1.5" stroke-miterlimit="10" d="M138.479,4.471
		c-0.233-0.041-0.478-0.069-0.719-0.069c-2.344,0-4.251,1.845-4.251,4.116c0,2.268,1.907,4.116,4.251,4.116
		c0.241,0,0.485-0.029,0.723-0.068c2.046-0.342,3.527-2.047,3.527-4.048C142.01,6.512,140.528,4.809,138.479,4.471z"/>
</g>
</svg>
